<svg width="376" height="118" viewBox="0 0 376 118" fill="none" xmlns="http://www.w3.org/2000/svg">
<path d="M7.40625 28.0469H20.5781V72.6719C20.5781 76.5156 20.9062 79.2344 21.5625 80.8281C22.25 82.4219 23.3594 83.7031 24.8906 84.6719C26.4531 85.6094 28.3281 86.0781 30.5156 86.0781C32.8281 86.0781 34.8125 85.5469 36.4688 84.4844C38.1562 83.4219 39.3125 82.0781 39.9375 80.4531C40.5938 78.7969 40.9219 75.6562 40.9219 71.0312V28.0469H54.0938V69.1562C54.0938 76.0938 53.7031 80.9062 52.9219 83.5938C52.1406 86.2812 50.6406 88.875 48.4219 91.375C46.2344 93.875 43.7031 95.7344 40.8281 96.9531C37.9531 98.1406 34.6094 98.7344 30.7969 98.7344C25.7969 98.7344 21.4375 97.5938 17.7188 95.3125C14.0312 93 11.3906 90.125 9.79688 86.6875C8.20312 83.2188 7.40625 77.375 7.40625 69.1562V28.0469ZM80.6719 46V51.625C82.9844 49.3125 85.4844 47.5781 88.1719 46.4219C90.8594 45.2656 93.7344 44.6875 96.7969 44.6875C103.453 44.6875 109.109 47.2031 113.766 52.2344C118.422 57.2656 120.75 63.7188 120.75 71.5938C120.75 79.1875 118.344 85.5469 113.531 90.6719C108.719 95.7656 103.016 98.3125 96.4219 98.3125C93.4844 98.3125 90.75 97.7969 88.2188 96.7656C85.6875 95.7031 83.1719 93.9844 80.6719 91.6094V115.656H67.9688V46H80.6719ZM94.125 56.5C90.0938 56.5 86.75 57.875 84.0938 60.625C81.4375 63.375 80.1094 66.9688 80.1094 71.4062C80.1094 75.9375 81.4375 79.6094 84.0938 82.4219C86.75 85.2031 90.0938 86.5938 94.125 86.5938C98.0312 86.5938 101.312 85.1719 103.969 82.3281C106.656 79.4844 108 75.8594 108 71.4531C108 67.0781 106.688 63.5 104.062 60.7188C101.438 57.9062 98.125 56.5 94.125 56.5Z" fill="url(#paint0_linear_172_557)"/>
<path d="M131.922 28.0469H169.562V40.8906H144.953V53.3594H169.562V65.9688H144.953V84.1094H169.562V97H131.922V28.0469ZM174.953 46H187.984L200.875 76.0938L213.719 46H226.703L205 97H196.703L174.953 46ZM285.344 75.2031H244.234C244.828 78.8281 246.406 81.7188 248.969 83.875C251.562 86 254.859 87.0625 258.859 87.0625C263.641 87.0625 267.75 85.3906 271.188 82.0469L281.969 87.1094C279.281 90.9219 276.062 93.75 272.312 95.5938C268.562 97.4062 264.109 98.3125 258.953 98.3125C250.953 98.3125 244.438 95.7969 239.406 90.7656C234.375 85.7031 231.859 79.375 231.859 71.7812C231.859 64 234.359 57.5469 239.359 52.4219C244.391 47.2656 250.688 44.6875 258.25 44.6875C266.281 44.6875 272.812 47.2656 277.844 52.4219C282.875 57.5469 285.391 64.3281 285.391 72.7656L285.344 75.2031ZM272.5 65.125C271.656 62.2812 269.984 59.9688 267.484 58.1875C265.016 56.4062 262.141 55.5156 258.859 55.5156C255.297 55.5156 252.172 56.5156 249.484 58.5156C247.797 59.7656 246.234 61.9688 244.797 65.125H272.5ZM295.75 46H308.5V51.2031C311.406 48.7656 314.031 47.0781 316.375 46.1406C318.75 45.1719 321.172 44.6875 323.641 44.6875C328.703 44.6875 333 46.4531 336.531 49.9844C339.5 52.9844 340.984 57.4219 340.984 63.2969V97H328.328V74.6406C328.328 68.5469 328.047 64.5 327.484 62.5C326.953 60.5 326 58.9844 324.625 57.9531C323.281 56.8906 321.609 56.3594 319.609 56.3594C317.016 56.3594 314.781 57.2344 312.906 58.9844C311.062 60.7031 309.781 63.0938 309.062 66.1562C308.688 67.75 308.5 71.2031 308.5 76.5156V97H295.75V46ZM354.953 27.2031H367.703V46H375.297V57.0156H367.703V97H354.953V57.0156H348.391V46H354.953V27.2031Z" fill="url(#paint1_linear_172_557)"/>
<defs>
<linearGradient id="paint0_linear_172_557" x1="0" y1="59" x2="40.4509" y2="59" gradientUnits="userSpaceOnUse">
<stop stop-color="#4B1155"/>
<stop offset="1" stop-color="#C955DD"/>
</linearGradient>
<linearGradient id="paint1_linear_172_557" x1="376" y1="59" x2="124" y2="59" gradientUnits="userSpaceOnUse">
<stop stop-color="#0F4457"/>
<stop offset="1" stop-color="#52BAE0"/>
</linearGradient>
</defs>
</svg>
